<svg xmlns="http://www.w3.org/2000/svg" viewBox="0 0 32 32" width="32" height="32" fill="none">
  <!-- Cat head -->
  <circle cx="13" cy="19" r="9" fill="#13100b"/>
  <!-- Left ear -->
  <polygon points="5.5,15 3.5,7.5 10.5,12" fill="#13100b"/>
  <!-- Right ear -->
  <polygon points="20.5,15 22.5,7.5 15.5,12" fill="#13100b"/>
  <!-- Ear inner -->
  <polygon points="6.2,14 5.2,9 9.5,11.5" fill="rgba(240,176,73,0.38)"/>
  <polygon points="19.8,14 20.8,9 16.5,11.5" fill="rgba(240,176,73,0.38)"/>
  <!-- Eyes -->
  <ellipse cx="9.5" cy="18.5" rx="1.5" ry="1.7" fill="#f0b849"/>
  <ellipse cx="16.5" cy="18.5" rx="1.5" ry="1.7" fill="#f0b849"/>
  <!-- Pupils -->
  <ellipse cx="9.5" cy="18.5" rx="0.45" ry="1.4" fill="#0a0806"/>
  <ellipse cx="16.5" cy="18.5" rx="0.45" ry="1.4" fill="#0a0806"/>
  <!-- Nose -->
  <polygon points="13,21 11.7,22.4 14.3,22.4" fill="#e87d3e" opacity="0.9"/>
  <!-- Tail -->
  <path d="M 20 23 C 29 21 30.5 13 26 8 C 23.5 4.5 20 7.5 22.5 11"
        stroke="#f0b849" stroke-width="2.2" fill="none"
        stroke-linecap="round" stroke-linejoin="round"/>
</svg>
